<?xml version="1.0" encoding="UTF-8"?>
<!DOCTYPE svg PUBLIC "-//W3C//DTD SVG 1.1//EN" "http://www.w3.org/Graphics/SVG/1.1/DTD/svg11.dtd">
<svg xmlns="http://www.w3.org/2000/svg" version="1.1" width="150px" height="150px" style="shape-rendering:geometricPrecision; text-rendering:geometricPrecision; image-rendering:optimizeQuality; fill-rule:evenodd; clip-rule:evenodd" xmlns:xlink="http://www.w3.org/1999/xlink">
<g><path style="opacity:0.004" fill="#000000" d="M 118.5,19.5 C 119.833,20.1667 119.833,20.1667 118.5,19.5 Z"/></g>
<g><path style="opacity:0.837" fill="#000000" d="M 64.5,20.5 C 83.5948,20.5539 102.595,20.5539 121.5,20.5C 129.375,24.8624 135.041,30.6958 138.5,38C 138.5,42 138.5,46 138.5,50C 136.705,55.4358 133.372,59.6025 128.5,62.5C 142.691,72.3642 145.691,84.8642 137.5,100C 137.833,100.333 138.167,100.667 138.5,101C 134.802,103.186 131.468,105.853 128.5,109C 127.007,110.368 125.507,110.535 124,109.5C 123.676,111.569 122.842,111.902 121.5,110.5C 120.459,112.991 119.626,112.991 119,110.5C 117.559,111.26 116.059,111.926 114.5,112.5C 104.911,112.52 95.2439,112.353 85.5,112C 83.5586,110.184 82.8919,108.184 83.5,106C 82.6224,101.696 80.7891,97.8626 78,94.5C 77.2025,92.7412 77.3691,91.0745 78.5,89.5C 89.0299,88.1758 99.5299,88.1758 110,89.5C 112.185,88.0716 114.185,86.4049 116,84.5C 116.458,81.904 115.625,79.7373 113.5,78C 100.487,77.8327 87.4872,77.3327 74.5,76.5C 72.1344,72.4799 69.8011,68.4799 67.5,64.5C 66.5008,67.1608 65.5008,69.8275 64.5,72.5C 64.8333,73.1667 65.1667,73.8333 65.5,74.5C 62.3781,80.2915 59.7114,86.2915 57.5,92.5C 57.7093,93.086 58.0426,93.586 58.5,94C 55.3953,101.154 52.3953,108.321 49.5,115.5C 49.8333,116.167 50.1667,116.833 50.5,117.5C 48.7725,120.287 47.6058,123.287 47,126.5C 46.1667,127.333 45.3333,128.167 44.5,129C 35.8397,129.5 27.1731,129.666 18.5,129.5C 18.6337,124.081 20.3004,119.248 23.5,115C 23.1667,114.667 22.8333,114.333 22.5,114C 24.3869,112.031 25.7202,109.698 26.5,107C 26.1667,106.667 25.8333,106.333 25.5,106C 28.4391,98.8277 31.4391,92.1611 34.5,86C 33.1667,85 33.1667,84 34.5,83C 33.3348,79.6344 31.5015,77.4677 29,76.5C 22.7736,65.9912 17.1069,55.3245 12,44.5C 14.8934,43.5715 17.7267,42.5715 20.5,41.5C 23.8124,41.0687 27.3124,41.0687 31,41.5C 31.6667,40.8333 32.3333,40.1667 33,39.5C 37.6692,44.8291 41.3359,50.8291 44,57.5C 46.1154,52.1036 48.6154,46.937 51.5,42C 51.1667,41 50.8333,40 50.5,39C 51.6721,38.5814 52.6721,37.9147 53.5,37C 58.8229,36.5006 64.1563,36.334 69.5,36.5C 67.8873,31.1329 66.2207,25.7995 64.5,20.5 Z M 81.5,43.5 C 90.1614,44.166 98.4948,44.166 106.5,43.5C 111.549,45.6798 112.883,49.3465 110.5,54.5C 102.193,55.6092 93.8594,56.1092 85.5,56C 86.5,55.6667 87.5,55.3333 88.5,55C 86.8988,54.7266 85.3988,54.2266 84,53.5C 83.5503,51.481 82.717,49.6477 81.5,48C 82.4132,46.5861 82.4132,45.0861 81.5,43.5 Z"/></g>
</svg>
